<?xml version="1.0" encoding="UTF-8" standalone="no"?>
<svg
   width="900px"
   height="900px"
   viewBox="0 0 900 900"
   version="1.1"
   xml:space="preserve"
   id="SVGRoot"
   inkscape:version="1.3.2 (091e20e, 2023-11-25)"
   sodipodi:docname="JKD-logo-light.svg"
   xmlns:inkscape="http://www.inkscape.org/namespaces/inkscape"
   xmlns:sodipodi="http://sodipodi.sourceforge.net/DTD/sodipodi-0.dtd"
   xmlns="http://www.w3.org/2000/svg"
   xmlns:svg="http://www.w3.org/2000/svg"><defs
   id="defs10"><rect
     x="136.32444"
     y="586.86616"
     width="623.95158"
     height="81.5227"
     id="rect19" /></defs>
  <sodipodi:namedview
   pagecolor="#a9a9a9"
   bordercolor="#292929"
   borderopacity="1"
   inkscape:showpageshadow="2"
   inkscape:pageopacity="0.0"
   inkscape:pagecheckerboard="0"
   inkscape:deskcolor="#232323"
   id="namedview1"
   inkscape:zoom="0.49968879"
   inkscape:cx="499.31078"
   inkscape:cy="-80.049824"
   inkscape:window-width="1600"
   inkscape:window-height="836"
   inkscape:window-x="0"
   inkscape:window-y="0"
   inkscape:window-maximized="1"
   inkscape:current-layer="SVGRoot" />
 <style
   type="text/css"
   id="style1">
g.prefab path {
  vector-effect:non-scaling-stroke;
  -inkscape-stroke:hairline;
  fill: none;
  fill-opacity: 1;
  stroke-opacity: 1;
  stroke: #00349c;
}
 </style>
 
<rect
   style="fill:#ffffff;stroke-width:2.24949"
   id="rect10"
   width="843.23395"
   height="174.99202"
   x="40.421078"
   y="6.8172731" /><rect
   style="fill:#ffffff;stroke-width:6.60061;stroke-dasharray:none"
   id="rect11"
   width="180.84795"
   height="462.70044"
   x="-1026.9917"
   y="-695.97888"
   transform="matrix(-0.99980448,-0.01977386,0.62651506,-0.77940931,0,0)"
   inkscape:transform-center-x="11.832696"
   inkscape:transform-center-y="-123.04435" /><rect
   style="fill:#ffffff;stroke-width:3.16574"
   id="rect12"
   width="172.31714"
   height="528.02936"
   x="351.82828"
   y="180.51134" /><rect
   style="fill:#ffffff;stroke-width:2.62293"
   id="rect13"
   width="226.16013"
   height="702.75378"
   x="-124.33123"
   y="343.82101"
   transform="matrix(0.99996957,-0.00780093,0.74441484,0.66771742,0,0)"
   inkscape:transform-center-x="-365.75798"
   inkscape:transform-center-y="117.53403" /><rect
   style="opacity:1;fill:#ffffff;fill-rule:evenodd;stroke-width:3.64769;stroke-dasharray:none"
   id="rect20"
   width="326.98477"
   height="31.558702"
   x="558.11298"
   y="736.13788" /><rect
   style="opacity:1;fill:#000000;fill-rule:evenodd;stroke-width:6.58585;stroke-dasharray:none"
   id="rect23"
   width="5.0109315"
   height="143.65192"
   x="347.70862"
   y="186.79845" /><rect
   style="opacity:1;fill:#000000;fill-rule:evenodd;stroke-width:5.5;stroke-dasharray:none"
   id="rect25"
   width="5.0109315"
   height="100.18736"
   x="-675.66241"
   y="-8.3747931"
   transform="rotate(-141.71172)" /><rect
   style="opacity:1;fill:#000000;fill-rule:evenodd;stroke-width:10.9345;stroke-dasharray:none"
   id="rect26"
   width="5.0142221"
   height="395.72781"
   x="-192.6152"
   y="477.0733"
   transform="matrix(-0.03744298,-0.99929877,0.99999712,-0.00240143,0,0)" /><rect
   style="opacity:1;fill:#000000;fill-rule:evenodd;stroke-width:5.5;stroke-dasharray:none"
   id="rect27"
   width="5.0109315"
   height="100.18736"
   x="875.70862"
   y="88.263" /><rect
   style="opacity:1;fill:#000000;fill-rule:evenodd;stroke-width:5.5;stroke-dasharray:none"
   id="rect28"
   width="5.0109315"
   height="100.18736"
   x="-814.13458"
   y="6.6574111"
   transform="rotate(-141.71172)" /><rect
   style="opacity:1;fill:#000000;fill-rule:evenodd;stroke-width:10.1534;stroke-dasharray:none"
   id="rect30"
   width="5.0133214"
   height="341.2746"
   x="-191.47339"
   y="14.074375"
   transform="matrix(-0.0322965,-0.99947833,0.99999612,-0.0027846,0,0)" /><rect
   style="opacity:1;fill:#000000;fill-rule:evenodd;stroke-width:13.3786;stroke-dasharray:none"
   id="rect32"
   width="5.0109315"
   height="592.80646"
   x="527.70862"
   y="126.79845" /><rect
   style="opacity:1;fill:#000000;fill-rule:evenodd;stroke-width:10.1534;stroke-dasharray:none"
   id="rect33"
   width="5.0133214"
   height="341.2746"
   x="55.935707"
   y="791.27972"
   transform="matrix(0.64414223,-0.76490574,0.74556182,0.66643647,0,0)" /><rect
   style="opacity:1;fill:#000000;fill-rule:evenodd;stroke-width:8.37194;stroke-dasharray:none"
   id="rect34"
   width="5.0119157"
   height="232.08717"
   x="-716.10358"
   y="634.19818"
   transform="matrix(-0.02196961,-0.99975864,0.99999162,-0.00409464,0,0)" /><rect
   style="opacity:1;fill:#000000;fill-rule:evenodd;stroke-width:8.91483;stroke-dasharray:none"
   id="rect35"
   width="4.4034162"
   height="299.53192"
   x="-91.949326"
   y="660.22571"
   transform="matrix(0.64213914,-0.76658811,0.74379988,0.66840238,0,0)" /><rect
   style="fill:#ffffff;stroke-width:2.45365"
   id="rect36"
   width="177.48227"
   height="307.96524"
   x="30.166187"
   y="401.92291" /><rect
   style="fill:#ffffff;stroke-width:2.50207"
   id="rect37"
   width="470.58875"
   height="120.77842"
   x="32.503922"
   y="595.11133" /><ellipse
   style="fill:#ffffff;fill-rule:evenodd;stroke-width:1.14823"
   id="path38"
   cx="-277.48398"
   cy="-703.09784"
   rx="247.79485"
   ry="81.208473"
   transform="scale(-1)" /><path
   style="opacity:0.43;fill:none;fill-rule:evenodd;stroke-width:17;stroke-dasharray:none"
   d="m 519.73347,730.81055 c -0.28986,-1.05692 0.48351,-6.48519 0,-7.01191 -0.0732,-0.0797 -0.24821,0.0765 -0.32475,0 -0.17593,-0.17592 0.0871,-1.21991 0,-1.44273 -0.0607,-0.15533 -0.31333,-0.19198 -0.35377,-0.35377 -0.42115,-1.6846 0,-6.07379 0,-8.10363 0,-0.95647 -0.39702,-2.93343 0.35377,-3.68422"
   id="path39" /><rect
   style="opacity:1;fill:#ffffff;fill-rule:evenodd;stroke-width:45.8213;stroke-dasharray:none"
   id="rect51"
   width="156.31039"
   height="135.93945"
   x="636.98657"
   y="293.1539"
   transform="matrix(0.84446683,0.53560785,-0.61697052,0.78698626,0,0)" /><rect
   style="opacity:1;fill:#ffffff;fill-rule:evenodd;stroke-width:55.1063;stroke-dasharray:none"
   id="rect52"
   width="185.37645"
   height="165.78482"
   x="482.34653"
   y="307.46448"
   transform="matrix(0.76646599,0.6422849,-0.7180755,0.69596521,0,0)" /><rect
   style="opacity:1;fill:#000000;fill-rule:evenodd;stroke-width:6.26266;stroke-dasharray:none"
   id="rect54"
   width="5.011085"
   height="129.89386"
   x="-703.69659"
   y="412.69083"
   transform="matrix(-0.0122977,-0.99992438,0.99997324,-0.00731607,0,0)" /><rect
   style="opacity:1;fill:#000000;fill-rule:evenodd;stroke-width:6.58585;stroke-dasharray:none"
   id="rect55"
   width="5.0109315"
   height="143.65192"
   x="389.70862"
   y="128.79845" /><rect
   style="opacity:1;fill:#000000;fill-rule:evenodd;stroke-width:6.58585;stroke-dasharray:none"
   id="rect56"
   width="5.0109315"
   height="143.65192"
   x="139.4155"
   y="-528.33258"
   transform="rotate(88.587455)" /></svg>
